<mxfile host="app.diagrams.net" modified="2023-08-20T11:46:36.402Z" agent="Mozilla/5.0 (Macintosh; Intel Mac OS X 10_15_7) AppleWebKit/537.36 (KHTML, like Gecko) Chrome/115.0.0.0 Safari/537.36" version="21.6.8" etag="Xxdc-GXaD3RXgQNpHoIT" type="github">
  <diagram name="第 1 页" id="J8AwHqCBefN4a8W1EPn6">
    <mxGraphModel>
      <root>
        <mxCell id="0" />
        <mxCell id="1" parent="0" />
      </root>
    </mxGraphModel>
  </diagram>
</mxfile>
